<svg width="20" height="19" viewBox="0 0 20 19" fill="none" xmlns="http://www.w3.org/2000/svg">
<g clip-path="url(#clip0_17_3)">
<path d="M18.8967 0H1.10333C0.494167 0 0 0.469458 0 1.04817V17.9518C0 18.5313 0.494167 19 1.10333 19H10.6817V11.6423H8.07417V8.77563H10.6817V6.65792C10.6817 4.20454 12.26 2.86979 14.5642 2.86979C15.6683 2.86979 16.6175 2.94658 16.8942 2.98142V5.54642H15.2933C14.0433 5.54642 13.8 6.11721 13.8 6.94846V8.778H16.7867L16.3992 11.6518H13.8V19H18.8958C19.5067 19 20 18.5313 20 17.9518V1.04817C20 0.469458 19.5067 0 18.8967 0Z" fill="#CDCDCD"/>
</g>
<defs>
<clipPath id="clip0_17_3">
<rect width="20" height="19" fill="white"/>
</clipPath>
</defs>
</svg>
