<svg width="19" height="19" viewBox="0 0 19 19" fill="none" xmlns="http://www.w3.org/2000/svg">
<path d="M9.69388 8.14229V11.4H15.1919C14.9698 12.7973 13.531 15.4961 9.69388 15.4961C6.38584 15.4961 3.68448 12.8131 3.68448 9.5C3.68448 6.18688 6.38665 3.50392 9.69388 3.50392C11.5761 3.50392 12.8371 4.28688 13.5593 4.96771L16.188 2.48346C14.4996 0.938917 12.3104 0 9.69388 0C4.33397 0 0 4.24729 0 9.5C0 14.7527 4.33397 19 9.69388 19C15.2889 19 19 15.1454 19 9.71692C19 9.09308 18.9313 8.6165 18.8473 8.14229H9.69388V8.14229Z" fill="#CDCDCD"/>
</svg>
