<svg width="32" height="36" viewBox="0 0 32 36" fill="none" xmlns="http://www.w3.org/2000/svg">
<g id="Iconly/Bold/Home" filter="url(#filter0_d_35_213)">
<g id="Home">
<path id="Home_2" d="M12.4185 25.9667V22.1445C12.4185 21.1688 13.2152 20.3779 14.198 20.3779H17.7908C18.2627 20.3779 18.7154 20.564 19.0491 20.8953C19.3828 21.2266 19.5703 21.676 19.5703 22.1445V25.9667C19.5674 26.3723 19.7276 26.7623 20.0155 27.0502C20.3033 27.3381 20.6951 27.5 21.1037 27.5H23.5548C24.6995 27.5029 25.7984 27.0536 26.609 26.251C27.4195 25.4485 27.875 24.3587 27.875 23.2223V12.3336C27.875 11.4156 27.4651 10.5448 26.7558 9.95584L18.4175 3.34484C16.9671 2.1857 14.8889 2.22313 13.4817 3.43372L5.33377 9.95584C4.59093 10.5274 4.14694 11.4008 4.125 12.3336V23.2112C4.125 25.5798 6.05923 27.5 8.44522 27.5H10.8404C11.689 27.5 12.3787 26.8203 12.3849 25.9778L12.4185 25.9667Z" fill="white"/>
</g>
</g>
<defs>
<filter id="filter0_d_35_213" x="-3" y="0" width="38" height="38" filterUnits="userSpaceOnUse" color-interpolation-filters="sRGB">
<feFlood flood-opacity="0" result="BackgroundImageFix"/>
<feColorMatrix in="SourceAlpha" type="matrix" values="0 0 0 0 0 0 0 0 0 0 0 0 0 0 0 0 0 0 127 0" result="hardAlpha"/>
<feOffset dy="4"/>
<feGaussianBlur stdDeviation="2"/>
<feComposite in2="hardAlpha" operator="out"/>
<feColorMatrix type="matrix" values="0 0 0 0 0 0 0 0 0 0 0 0 0 0 0 0 0 0 0.25 0"/>
<feBlend mode="normal" in2="BackgroundImageFix" result="effect1_dropShadow_35_213"/>
<feBlend mode="normal" in="SourceGraphic" in2="effect1_dropShadow_35_213" result="shape"/>
</filter>
</defs>
</svg>
