<svg width="27" height="27" viewBox="0 0 27 27" fill="none" xmlns="http://www.w3.org/2000/svg">
<g id="Iconly/Bold/Image">
<g id="Image">
<path id="Image_2" fill-rule="evenodd" clip-rule="evenodd" d="M8.38489 24.0625H17.864C21.5721 24.0625 24.0625 21.4614 24.0625 17.5911V8.65891C24.0625 4.78856 21.5721 2.1875 17.8651 2.1875H8.38489C4.67785 2.1875 2.1875 4.78856 2.1875 8.65891V17.5911C2.1875 21.4614 4.67785 24.0625 8.38489 24.0625ZM9.29563 12.0312C7.78773 12.0312 6.5625 10.8044 6.5625 9.29688C6.5625 7.78939 7.78773 6.5625 9.29563 6.5625C10.8024 6.5625 12.0288 7.78939 12.0288 9.29688C12.0288 10.8044 10.8024 12.0312 9.29563 12.0312ZM21.679 16.334C22.0453 17.2731 21.855 18.4019 21.4634 19.3319C20.9993 20.4381 20.1106 21.2756 18.991 21.6413C18.4939 21.8039 17.9725 21.875 17.4523 21.875H8.23445C7.31718 21.875 6.50549 21.6549 5.84008 21.2452C5.42324 20.9878 5.34955 20.3941 5.65861 20.0092C6.17554 19.3658 6.68587 18.7202 7.2006 18.0689C8.18166 16.8228 8.84267 16.4616 9.57737 16.7787C9.87543 16.9097 10.1746 17.1061 10.4825 17.3138C11.303 17.8714 12.4436 18.6378 13.946 17.8059C14.9741 17.2301 15.5704 16.2423 16.0897 15.3822L16.0897 15.3822L16.0984 15.3678C16.1352 15.3075 16.1716 15.2471 16.208 15.1869C16.3825 14.8982 16.5547 14.6133 16.7495 14.3508C16.9937 14.0223 17.8988 12.9952 19.0713 13.7266C19.8181 14.1871 20.4461 14.8102 21.1181 15.4773C21.3744 15.7324 21.5569 16.0225 21.679 16.334Z" fill="white"/>
</g>
</g>
</svg>
