<svg width="19" height="19" viewBox="0 0 19 19" fill="none" xmlns="http://www.w3.org/2000/svg">
<g clip-path="url(#clip0_18_12)">
<path d="M9.5 0C6.91917 0 6.59696 0.011875 5.58363 0.057C4.57188 0.1045 3.88312 0.263625 3.2775 0.49875C2.65287 0.741 2.12246 1.06637 1.59442 1.59442C1.06637 2.12246 0.740208 2.65208 0.49875 3.2775C0.263625 3.88312 0.103708 4.57188 0.057 5.58363C0.0095 6.59696 0 6.91917 0 9.5C0 12.0808 0.011875 12.403 0.057 13.4164C0.1045 14.4273 0.263625 15.1169 0.49875 15.7225C0.741 16.3463 1.06637 16.8775 1.59442 17.4056C2.12246 17.9328 2.65208 18.2598 3.2775 18.5013C3.88392 18.7356 4.57267 18.8963 5.58363 18.943C6.59696 18.9905 6.91917 19 9.5 19C12.0808 19 12.403 18.9881 13.4164 18.943C14.4273 18.8955 15.1169 18.7356 15.7225 18.5013C16.3463 18.259 16.8775 17.9328 17.4056 17.4056C17.9328 16.8775 18.2598 16.3487 18.5013 15.7225C18.7356 15.1169 18.8963 14.4273 18.943 13.4164C18.9905 12.403 19 12.0808 19 9.5C19 6.91917 18.9881 6.59696 18.943 5.58363C18.8955 4.57267 18.7356 3.88233 18.5013 3.2775C18.259 2.65287 17.9328 2.12246 17.4056 1.59442C16.8775 1.06637 16.3487 0.740208 15.7225 0.49875C15.1169 0.263625 14.4273 0.103708 13.4164 0.057C12.403 0.0095 12.0808 0 9.5 0ZM9.5 1.71C12.0357 1.71 12.3381 1.72267 13.3396 1.76621C14.2658 1.80975 14.7685 1.96333 15.1026 2.09475C15.5475 2.26654 15.8626 2.47238 16.1967 2.80408C16.5284 3.13658 16.7343 3.45246 16.906 3.89737C17.0359 4.23146 17.191 4.73417 17.233 5.66042C17.2781 6.66267 17.2884 6.9635 17.2884 9.5C17.2884 12.0365 17.2765 12.3381 17.2298 13.3396C17.1815 14.2658 17.0272 14.7685 16.8965 15.1026C16.7192 15.5475 16.5173 15.8626 16.1848 16.1967C15.8531 16.5284 15.5325 16.7343 15.0923 16.906C14.7598 17.0359 14.2492 17.191 13.323 17.233C12.3144 17.2781 12.0175 17.2884 9.47625 17.2884C6.93421 17.2884 6.63733 17.2765 5.62954 17.2298C4.7025 17.1815 4.19188 17.0272 3.85938 16.8965C3.40892 16.7192 3.09938 16.5173 2.76767 16.1848C2.43438 15.8531 2.22142 15.5325 2.05517 15.0923C1.92454 14.7598 1.77096 14.2492 1.72267 13.323C1.68704 12.3255 1.67438 12.0175 1.67438 9.48812C1.67438 6.95796 1.68704 6.64921 1.72267 5.63983C1.77096 4.71358 1.92454 4.20375 2.05517 3.87125C2.22142 3.42 2.43438 3.11125 2.76767 2.77796C3.09938 2.44625 3.40892 2.2325 3.85938 2.06704C4.19188 1.93563 4.69142 1.78125 5.61767 1.73375C6.62704 1.69813 6.92392 1.68625 9.46438 1.68625L9.5 1.71V1.71ZM9.5 4.62175C6.80438 4.62175 4.62175 6.80675 4.62175 9.5C4.62175 12.1956 6.80675 14.3783 9.5 14.3783C12.1956 14.3783 14.3783 12.1933 14.3783 9.5C14.3783 6.80438 12.1933 4.62175 9.5 4.62175ZM9.5 12.6667C7.75042 12.6667 6.33333 11.2496 6.33333 9.5C6.33333 7.75042 7.75042 6.33333 9.5 6.33333C11.2496 6.33333 12.6667 7.75042 12.6667 9.5C12.6667 11.2496 11.2496 12.6667 9.5 12.6667ZM15.7114 4.42937C15.7114 5.05875 15.2 5.56938 14.5714 5.56938C13.942 5.56938 13.4314 5.05796 13.4314 4.42937C13.4314 3.80079 13.9428 3.29017 14.5714 3.29017C15.1992 3.28938 15.7114 3.80079 15.7114 4.42937Z" fill="#CDCDCD"/>
</g>
<defs>
<clipPath id="clip0_18_12">
<rect width="19" height="19" fill="white"/>
</clipPath>
</defs>
</svg>
